<svg xmlns="http://www.w3.org/2000/svg" viewBox="0 0 871.96 295.8" width="200"><title>Logo Toulon Hyères</title><path d="M22.87 149.45H.36v-16.8h64.41v16.8H42V203H22.87zM67.46 167.56c0-20.71 16.11-36.51 37.91-36.51 21.6 0 37.5 15.3 37.5 36.51 0 21-15.9 36.6-37.5 36.6-21.8 0-37.91-16-37.91-36.6zm55.91 0c0-11.3-7.6-19.21-18-19.21-10.6 0-18.4 8-18.4 19.21 0 11 7.8 19.3 18.4 19.3 10.4 0 18-8.2 18-19.3zM153 171.46v-38.81h19.1V173c0 6.5 3.3 13.9 13.2 13.9s13.51-7.4 13.51-13.9v-40.35h19.1v38.81c0 21.4-13 32.4-32.61 32.4-19.3 0-32.3-11-32.3-32.4zM231.46 132.65h19.2v53.61h31.21V203h-50.41zM284.36 167.56c0-20.71 16.1-36.51 37.91-36.51 21.6 0 37.5 15.3 37.5 36.51 0 21-15.9 36.6-37.5 36.6-21.81 0-37.91-16-37.91-36.6zm55.91 0c0-11.3-7.6-19.21-18-19.21-10.6 0-18.4 8-18.4 19.21 0 11 7.8 19.3 18.4 19.3 10.4 0 18-8.2 18-19.3zM389.46 164.56V203h-18.7v-71.15h10.6L417 170.06v-37.41h18.7v71h-10.5zM472 132.65h19.1v27h28.61v-27h19.1V203h-19.1v-26.4h-28.65V203H472zM571.46 175.66l-25.3-43h23.1l12.5 24.41 12.7-24.41h21.91l-25.61 42.91V203h-19.3zM623.36 132.65h50.7v16.61h-31.8v10h27.9v16.2h-27.9v10.9h32V203h-50.9zm13.4-16.6l23.5 13.7h-23.5zM709.66 185h-4.1v18h-18.7v-70.35h29.5c18.1 0 28.8 11.4 28.8 26.61 0 9.8-5 17.5-13.3 21.9l-1.7.8a20 20 0 0 0 11.8 3.6v18.5c-14.7 0-27.1-7.5-32.3-19.06zm5.2-15.9c6.9 0 11.2-4.4 11.2-10 0-5.91-4.1-10.51-11.5-10.51h-9v20.51zM757.76 132.65h50.7v16.61h-31.8v10h27.9v16.2h-27.9v10.9h32V203h-50.9zM815.76 195.16l8.9-15c6.6 5.1 12.1 7.4 20.7 7.4 4.6 0 7.1-1.8 7.1-4.9 0-3.6-2.6-5-12.5-7.9-15.2-4.5-21.1-10.3-21.1-20.9 0-13.41 10.9-22.11 27.6-22.11a43.08 43.08 0 0 1 25.5 7.7l-8 14.31a33.16 33.16 0 0 0-17.9-5.71c-5.2 0-7.9 1.4-7.9 4.31 0 2.7 1.9 3.9 12.2 7 14.8 4.4 21.1 10.9 21.1 21.6 0 14.5-10 22.9-27.4 22.9-11.3 0-20.7-3.2-28.3-8.7zM31.6 224.3h11.5l31.2 70.3H54.5l-4.8-11.8H24.4l-4.8 11.8H0zm13.5 44.1l-8-19.1-8.1 19.1zM80.6 224.3h50.7v16.6H99.5v10h27.9v16.2H99.5V278h32v16.6H80.6zm36.8-16.61v13.71H93.9zM166.9 276.6h-4.1v18h-18.7v-70.3h29.5c18.1 0 28.8 11.4 28.8 26.6 0 9.8-5 17.5-13.3 21.9l-1.7.8a20 20 0 0 0 11.8 3.6v18.5c-14.7 0-27.1-7.5-32.3-19.1zm5.2-15.9c6.9 0 11.2-4.4 11.2-10 0-5.9-4.1-10.5-11.5-10.5h-9v20.5zM210.3 259.2c0-20.7 16.1-36.5 37.9-36.5 21.6 0 37.5 15.3 37.5 36.5 0 21-15.9 36.6-37.5 36.6-21.8 0-37.9-16-37.9-36.6zm55.9 0c0-11.3-7.6-19.2-18-19.2-10.6 0-18.4 8-18.4 19.2 0 11 7.8 19.3 18.4 19.3 10.4 0 18-8.2 18-19.3zM296.7 224.3h27.5c18.4 0 29.6 11.1 29.6 26.8 0 14.8-11.5 25.4-30.5 25.4h-7.9v18.1h-18.7zm26.2 35.9c8.5 0 11.8-4.7 11.8-9.5 0-5.2-3.5-10.2-11.8-10.2h-7.5v19.7zM359.5 259.2c0-20.7 16.1-36.5 37.9-36.5 21.6 0 37.5 15.3 37.5 36.5 0 21-15.9 36.6-37.5 36.6-21.8 0-37.9-16-37.9-36.6zm55.9 0c0-11.3-7.6-19.2-18-19.2-10.6 0-18.4 8-18.4 19.2 0 11 7.8 19.3 18.4 19.3 10.4 0 18-8.2 18-19.3zM468.7 276.6h-4.1v18h-18.71v-70.3h29.51c18.1 0 28.8 11.4 28.8 26.6 0 9.8-5 17.5-13.3 21.9l-1.7.8a20 20 0 0 0 11.8 3.6v18.5c-14.7 0-27.1-7.5-32.3-19.1zm5.2-15.9c6.9 0 11.2-4.4 11.2-10 0-5.9-4.1-10.5-11.5-10.5h-9v20.5zM531.1 241.1h-22.51v-16.8H573v16.8h-22.8v53.5h-19.1z" fill="#004489"/><path fill="#95c11f" d="M117.4 207.69v13.71H93.9l23.5-13.71z"/><path d="M72.78 106.27c-16.19-16.94-14.1-44.72-15.67-51.15-8.4 15.46-11.44 35.48-7.11 51.15z" fill="#f79e43"/><path d="M69.35 25.07l23.2-23.22c-.74 0-1.47-.05-2.2-.05A41.53 41.53 0 0 0 60.87 14c-.76.77-1.48 1.57-2.18 2.39a44.86 44.86 0 0 1 5.57 11.22 44.16 44.16 0 0 1 5.09-2.54zM84.82 40.75l-23.3 7.19 48.15 14.93a41.49 41.49 0 0 0-24.85-22.12z" fill="#063"/><path d="M61.64 29.34A41.72 41.72 0 0 0 23 0l30.82 36.23a43.5 43.5 0 0 1 7.82-6.89zM57.48 49.84l30 37.53a41.42 41.42 0 0 0-6.77-30.31z" fill="#95c11f"/><path d="M33.71 56.89a41.44 41.44 0 0 0-5.2 29.62l27.57-36.86z" fill="#063"/><path d="M87.19 24.37a41.94 41.94 0 0 0-12.38 1.88 41.49 41.49 0 0 0-25.56 22.32l59.26-18.29a41.52 41.52 0 0 0-21.32-5.91z" fill="#95c11f"/><path d="M49.54 41.83c.34-.52.69-1 1.05-1.54l.15-.22c.35-.5.72-1 1.1-1.48l-11.11-13a42.58 42.58 0 0 0-5.27-1.83 41.54 41.54 0 0 0-33.54 5.07l47.62 13z" fill="#063"/><path d="M48 44.52l-16.92-4.61c-1 .24-1.95.51-2.92.83A41.49 41.49 0 0 0 2.9 63.4l42.64-13.8A44.62 44.62 0 0 1 48 44.52z" fill="#95c11f"/></svg>